<svg width="33" height="31" viewBox="0 0 33 31" fill="none" xmlns="http://www.w3.org/2000/svg">
<path d="M17.4332 0.856628C15.3722 0.856628 13.3529 1.28421 11.4943 2.08382H1.15613C0.832534 2.08382 0.57019 2.34608 0.57019 2.66975C0.57019 2.99343 0.832534 3.25569 1.15613 3.25569H9.28996C8.19019 3.9635 7.17777 4.81725 6.28511 5.80288C6.06792 6.04264 6.08621 6.41319 6.32605 6.63046C6.56597 6.84772 6.93636 6.82936 7.1537 6.58952C9.77886 3.69093 13.5257 2.0285 17.4332 2.0285C25.0784 2.0285 31.2982 8.24827 31.2982 15.8934C31.2982 23.5385 25.0785 29.7584 17.4332 29.7584C9.78808 29.7584 3.56832 23.5386 3.56832 15.8934C3.56832 13.2162 4.33308 10.6178 5.7798 8.37889C5.95542 8.1071 5.87745 7.74444 5.60566 7.56882C5.33386 7.39327 4.97121 7.47108 4.7955 7.74296C3.22597 10.1717 2.39644 12.9901 2.39644 15.8934C2.39644 21.1876 5.14691 25.8511 9.2937 28.5312H1.15621C0.832612 28.5312 0.570269 28.7934 0.570269 29.1171C0.570269 29.4408 0.832612 29.703 1.15621 29.703H11.4863C13.3113 30.492 15.322 30.9302 17.4333 30.9302C25.7246 30.9302 32.4701 24.1848 32.4701 15.8934C32.4701 7.6021 25.7246 0.856628 17.4332 0.856628Z" fill="#09A66D"/>
</svg>
