<svg width="21" height="21" viewBox="0 0 21 21" fill="none" xmlns="http://www.w3.org/2000/svg">
<path fill-rule="evenodd" clip-rule="evenodd" d="M5.61663 17.8203C6.03863 17.8203 6.38163 18.1633 6.38163 18.5853C6.38163 19.0073 6.03863 19.3493 5.61663 19.3493C5.19463 19.3493 4.85263 19.0073 4.85263 18.5853C4.85263 18.1633 5.19463 17.8203 5.61663 17.8203Z" stroke="#222222" stroke-width="1.5" stroke-linecap="round" stroke-linejoin="round"/>
<path fill-rule="evenodd" clip-rule="evenodd" d="M16.869 17.8203C17.291 17.8203 17.634 18.1633 17.634 18.5853C17.634 19.0073 17.291 19.3493 16.869 19.3493C16.447 19.3493 16.104 19.0073 16.104 18.5853C16.104 18.1633 16.447 17.8203 16.869 17.8203Z" stroke="#222222" stroke-width="1.5" stroke-linecap="round" stroke-linejoin="round"/>
<path d="M0.944244 1.25L3.02424 1.61L3.98724 13.083C4.06524 14.018 4.84624 14.736 5.78424 14.736H16.6962C17.5922 14.736 18.3522 14.078 18.4812 13.19L19.4302 6.632C19.5472 5.823 18.9202 5.099 18.1032 5.099H3.35824" stroke="#222222" stroke-width="1.5" stroke-linecap="round" stroke-linejoin="round"/>
<path d="M12.3197 8.79688H15.0927" stroke="#222222" stroke-width="1.5" stroke-linecap="round" stroke-linejoin="round"/>
</svg>
